<svg width="140" height="70" viewBox="0 0 140 70" fill="none" xmlns="http://www.w3.org/2000/svg">
<g clip-path="url(#clip0_33719_528)">
<path d="M140 0H0L60.3623 65.7C65.6377 71.5 74.3623 71.5 79.6377 65.7L140 0Z" fill="#81B3D3"/>
<path d="M37.2319 0.5L69.7972 38.4L102.261 0.7L37.2319 0.5Z" fill="#23A9E1"/>
<path d="M61.9856 14.6999H79.5363C78.2175 13.8999 75.0725 10.0999 73.4494 11.4999C73.3479 11.5999 68.4783 5.79992 65.3334 8.59992C62.5943 11.0999 61.2754 8.29992 58.232 10.1999C54.5798 12.5999 60.2609 13.8999 61.9856 14.6999ZM89.0725 11.1999L79.1305 11.2999C83.087 6.79992 84.8117 7.29992 89.0725 11.1999Z" fill="white"/>
<path d="M99.0145 3.6V1.2H101.145L99.0145 3.6ZM49.1014 13C49.2029 13.1 51.5362 10.6 55.2898 8.1C58.7391 5.8 64.0145 3.2 69.8985 3.2C75.7826 3.2 81.1594 5.9 84.6087 8.2C88.3623 10.6 90.6956 13 90.7971 13.1L88.2609 16.1C83.6956 16.7 80.4493 20 75.9855 19.3C73.7536 18.9 73.6522 17.7 73.0435 16.4C72.5362 15.4 71.7246 15.6 70.7101 15.2C69.7971 14.8 69.1884 14.1 67.2609 14.5C65.6377 14.9 65.4348 17.4 63.3043 17.3C62.1884 17.2 62.0869 15.7 60.4638 13.7C56.3043 8.8 52.5107 9.41045 49.873 13.9104L49.1014 13ZM40.5797 1.2V3.1L38.9565 1.2H40.5797ZM95.2609 1.2H98.5072V4.2L95.2609 8V1.2ZM91.1014 12.6V1.2H94.6522V8.6L91.1014 12.6ZM90.5942 2.2V12.1C89.4783 11 88.2609 10 86.942 9.1L90.5942 2.2ZM86.4348 1.9V8.7C85.9275 8.4 85.5217 8 84.913 7.7C84.2029 7.3 83.4927 6.8 82.6812 6.4L86.4348 1.9ZM81.971 1.7V6C80.9565 5.5 79.8406 5 78.8261 4.5L81.971 1.7ZM82.5797 1.2H86.3333L82.5797 5.8V1.2ZM86.942 1.2H90.5942L86.942 8.3V1.2ZM78.0145 1.2H81.971L78.4203 4.3C78.3188 4.3 78.2174 4.2 78.1159 4.2L78.0145 1.2ZM77.5072 1.6V4C76.4927 3.6 75.4783 3.3 74.3623 3.1L77.5072 1.6ZM73.2464 1.6V2.9C72.5362 2.8 71.8261 2.7 71.0145 2.6L73.2464 1.6ZM66.3478 1.6L68.5797 2.6C67.7681 2.6 67.058 2.7 66.3478 2.9V1.6ZM62.1884 1.6L65.3333 3.1C64.2174 3.3 63.2029 3.6 62.1884 4V1.6ZM65.8406 2.8L62.4927 1.2H65.8406V2.8ZM69.3913 2.4L66.5507 1.1H69.3913V2.4ZM70.1014 1.2H73.0435L70.1014 2.5V1.2ZM73.8551 1.2H77.1014L73.8551 2.8V1.2ZM61.2754 4.3L57.7246 1.2H61.6812V4.2L61.2754 4.3ZM57.6232 1.7L60.7681 4.4C59.6522 4.8 58.6377 5.3 57.6232 5.9V1.7ZM53.2609 1.9L56.913 6.4C55.5942 7.1 54.3768 7.9 53.2609 8.8V1.9ZM49 2.2L52.6522 9.2C51.3333 10.2 50.1159 11.2 49 12.4V2.2ZM52.7536 8.2L49.1014 1.1H52.7536V8.2ZM57.1159 5.7L53.3623 1.1H57.1159V5.7ZM44.3333 7.5L41.0869 3.7V1.2H44.3333V7.5ZM44.942 1.2H48.4927V12.4L44.942 8.2V1.2ZM36.5217 0V14.6L70 54.5L103.478 15V0H36.5217Z" fill="#491213"/>
<path d="M67.3624 46L70.0001 41.8L72.6378 46L70.0001 50.2001L67.3624 46Z" fill="#23A9E1"/>
<path d="M75.2753 30.6C71.826 28.6 72.6376 27.1 75.4782 25.7C76.9999 25 80.3478 22.3 81.6666 23.2L75.2753 30.6ZM72.942 33.1C70.913 33 68.5796 32.7 66.5507 33.2C67.768 33.5 70.8115 34.4 67.9709 35.1C68.9854 36.5 70.6086 36.4 71.6231 35.2C71.2173 35 70.913 34.7 70.6086 34.5C71.7246 34.2 72.7391 33.6 72.942 33.1ZM74.1593 31.5C73.2463 30.7 72.2318 30.7 71.4202 31.5C70.2028 29.4 65.942 30.1 63.913 29.8C65.0289 32.4 73.6521 32.9 74.1593 31.5ZM67.2608 29.3C65.6376 28.8 60.3622 28.9 63.8115 27.5C64.9275 27.1 70.6086 27.6 67.2608 29.3ZM69.2898 26.3C68.7825 25.2 69.6956 23.9 71.0144 24.9C72.2318 25.7 70.4057 26.9 69.2898 26.3ZM66.3478 26.4C64.0144 27.1 60.9709 25.6 64.7246 24.9C67.0579 24.4 69.4927 25.4 66.3478 26.4C66.4492 26.4 66.2463 26.4 66.3478 26.4ZM63.7101 20.2C63.2028 21.8 62.1883 22.1 62.2898 20.2C62.3912 17.9 63.913 18.5 65.5362 17.6C66.855 16.9 67.5651 14.2 69.8985 15.8C70.913 16.5 72.1304 15.9 72.4347 17C72.4347 16.9 69.4927 23.7 71.1159 23.7C67.8695 23.7 69.2898 19.9 70.5072 17.3C69.2898 17.9 67.3622 21.6 68.9854 22.3C68.1738 23.4 65.5362 24.9 64.2173 23.8C63.1014 22.8 63.7101 21.5 63.7101 20.2ZM59.6521 23C53.9709 23 57.826 14.4 59.7536 14.9C61.9854 15.6 61.6811 23.1 59.6521 23ZM53.3622 14.8C50.7246 14.7 51.8405 12.2 53.6666 11.7C55.3912 11.2 58.942 12.8 60.1593 13.9C58.3333 14.5 55.9999 14.4 53.9709 14.5C53.768 12.5 53.2608 13.2 53.3622 14.8Z" fill="#DC6243"/>
<path d="M72.8408 25.8001C69.8987 22.8001 77.2031 23.1001 78.4205 22.0001C79.2321 22.3001 85.5219 16.6001 87.0437 17.0001C85.9277 18.3001 83.5944 22.3001 81.9712 22.3001C80.6523 22.3001 79.3335 22.1001 78.319 23.0001C76.7973 24.4001 74.3625 25.1001 72.8408 25.8001Z" fill="#F49774"/>
<path d="M73.7537 22.2C72.1305 23.1 70.6088 19.7 73.4494 20C75.2754 20.2 77.203 19.8 78.9276 20.1C77.6088 21.6 75.7827 22.4 73.7537 22.2Z" fill="#F4B1A4"/>
<path d="M51.8406 20.9001C52.145 21.3001 52.4493 21.7001 52.3479 22.3001C52.3479 22.7001 51.7392 23.3001 52.145 23.5001L53.6667 21.7001C53.2609 21.6001 50.116 17.9001 50.116 17.5001L47.9856 18.6001C48.087 19.0001 48.7971 18.6001 49.2029 18.6001C49.7102 18.6001 50.116 19.0001 50.5218 19.3001C49.4058 20.2001 46.6667 22.6001 46.3624 22.6001C46.2609 22.6001 45.6522 22.2001 45.6522 22.6001C45.6522 22.8001 46.2609 23.3001 46.3624 23.4001L47.7827 25.1001C48.1885 24.9001 47.6812 24.6001 47.8841 24.3001C47.9856 24.1001 51.1305 21.6001 51.8406 20.9001ZM48.3914 16.4001C48.6957 16.3001 48.7971 16.7001 49 16.4001L47.3769 14.5001C47.174 14.2001 46.8696 13.9001 46.8696 14.5001C46.9711 14.9001 42.8116 18.2001 42.6087 18.3001C42.3044 18.4001 42.1015 18.0001 41.8986 18.4001C42.4058 19.0001 42.8116 19.5001 43.3189 20.1001C43.5218 20.3001 43.6232 20.5001 43.8261 20.7001C44.029 20.9001 43.9276 20.3001 43.9276 20.3001C43.8261 20.0001 44.2319 19.7001 44.5363 19.5001C45.5508 18.5001 48.087 16.4001 48.3914 16.4001ZM42.6087 15.8001C41.4928 16.1001 40.174 15.7001 39.8696 14.5001C39.4638 13.3001 40.2754 12.1001 41.1884 11.4001C42.1015 10.7001 43.5218 10.8001 44.029 11.9001C44.2319 12.4001 44.1305 13.0001 43.9276 13.5001C43.8261 13.8001 43.5218 14.1001 43.9276 14.3001C44.5363 13.6001 45.0435 12.9001 45.6522 12.2001C44.9421 11.8001 44.6377 11.1001 44.1305 10.5001C43.5218 9.80008 42.8116 9.10008 41.7971 9.00008C39.8696 8.70008 38.145 10.7001 37.9421 12.4001C37.8406 13.3001 38.145 14.2001 38.7537 15.0001C39.2609 15.6001 39.9711 16.1001 40.3769 16.8001C40.5798 16.9001 42.2029 16.1001 42.5073 16.0001C42.7102 16.0001 42.6087 15.9001 42.6087 15.8001C42.1015 16.0001 42.6087 15.8001 42.6087 15.8001ZM68.4783 39.4001C67.7682 38.9001 65.8406 36.4001 65.4348 35.9001L65.2319 35.6001L65.029 35.7001C64.9276 35.8001 65.1305 36.1001 65.029 36.3001C64.5218 37.1001 61.2754 39.5001 61.0725 39.7001C60.6667 39.9001 60.2609 39.6001 60.058 39.9001C60.5653 40.5001 61.8841 42.2001 62.087 42.2001C62.3913 42.2001 62.1884 41.7001 62.1884 41.6001C62.2899 41.4001 63.9131 40.0001 64.5218 39.5001C64.7247 39.3001 64.9276 39.8001 65.1305 40.0001C65.3334 40.3001 65.4348 40.7001 65.3334 41.0001C65.2319 41.2001 64.8261 41.6001 65.1305 41.8001C65.5363 41.3001 66.6522 40.0001 66.8551 39.8001C67.058 39.6001 66.4493 39.8001 66.5508 39.7001C66.3479 39.8001 66.0435 39.9001 65.8406 39.7001C65.7392 39.7001 65.1305 39.0001 65.2319 38.9001C65.5363 38.7001 65.8406 38.3001 66.2464 38.2001C66.8551 38.1001 67.2609 39.2001 67.3624 39.6001C67.4638 40.0001 67.4638 40.4001 67.2609 40.7001C67.1595 41.0001 66.9566 41.2001 67.2609 41.3001L68.6812 39.4001C68.6812 39.5001 68.5798 39.5001 68.4783 39.4001C68.3769 39.4001 68.5798 39.5001 68.4783 39.4001ZM59.145 30.5001C58.4348 30.5001 57.7247 30.8001 57.116 31.3001C55.6957 32.5001 55.4928 34.6001 56.6087 36.1001C57.9276 37.8001 60.058 38.0001 61.7827 36.8001C63.2029 35.6001 63.4058 33.5001 62.2899 32.0001C61.4783 31.0001 60.2609 30.5001 59.145 30.5001ZM60.3624 31.9001C61.2754 31.8001 61.8841 32.7001 61.4783 33.7001C61.0725 34.7001 60.058 35.7001 59.0435 36.1001C57.8261 36.6001 57.0145 35.6001 57.5218 34.4001C57.9276 33.4001 58.9421 32.4001 59.9566 32.0001C60.058 32.0001 60.1595 31.9001 60.3624 31.9001ZM57.5218 27.3001C57.8261 27.3001 58.1305 27.7001 58.3334 27.3001L56.9131 25.6001C56.5073 25.8001 56.9131 26.0001 56.8116 26.2001C56.6087 26.5001 55.087 26.7001 54.6812 26.8001C54.7827 26.4001 55.2899 25.1001 55.4928 25.0001C55.8986 24.7001 56.1015 25.3001 56.3044 24.9001L54.4783 22.8001C54.2754 22.6001 54.0725 22.1001 53.8696 22.4001C53.8696 22.4001 53.8696 23.4001 53.7682 23.5001C53.6667 23.7001 53.1595 25.9001 52.5508 26.4001C52.2464 26.7001 51.029 27.7001 50.7247 27.8001C50.4203 27.9001 50.2174 27.4001 49.9131 27.8001L51.5363 29.7001C51.6377 29.8001 51.9421 30.3001 52.0435 30.3001C52.3479 30.4001 52.0435 29.7001 52.145 29.6001C52.2464 29.3001 53.7682 27.8001 54.4783 27.7001C55.3913 27.5001 56.5073 27.2001 57.5218 27.3001C57.7247 27.3001 57.3189 27.3001 57.5218 27.3001ZM82.0725 34.0001C82.174 34.4001 82.2754 34.9001 82.174 35.3001C82.0725 35.9001 81.5653 37.2001 80.7537 36.8001C79.9421 36.4001 79.3334 35.7001 78.6232 35.1001C79.1305 34.5001 79.6377 34.0001 80.5508 34.3001C80.7537 34.4001 80.9566 34.3001 80.7537 34.1001C80.4493 33.9001 78.7247 32.8001 78.6232 32.9001C78.4203 33.1001 78.9276 33.5001 78.7247 33.9001C78.6232 34.2001 78.3189 34.4001 78.116 34.7001C77.6087 34.3001 76.8986 33.9001 77.4058 33.2001C77.8116 32.8001 78.2174 32.4001 78.8261 32.3001C79.2319 32.2001 80.0435 32.6001 80.145 32.2001C79.4348 31.9001 78.7247 31.5001 78.0145 31.2001C78.116 31.7001 75.7827 34.1001 75.2754 34.7001C75.174 34.8001 74.8696 35.1001 74.8696 35.2001C74.8696 35.5001 75.2754 35.3001 75.2754 35.3001C75.5798 35.2001 79.7392 38.6001 79.8406 38.9001C79.9421 39.1001 79.7392 39.3001 79.8406 39.4001C79.8406 39.4001 79.9421 39.5001 80.0435 39.5001C80.3479 39.2001 82.9856 35.6001 83.5942 35.5001C83.087 34.7001 82.5798 33.9001 82.0725 33.1001C81.6667 33.3001 81.9711 33.8001 82.0725 34.0001ZM78.0145 38.4001C76.6957 37.5001 74.3624 39.2001 73.9566 39.4001C73.2464 39.7001 72.7392 39.0001 73.145 38.4001C73.4493 37.9001 74.058 37.6001 74.6667 37.6001C74.8696 37.6001 75.5798 37.7001 75.5798 37.6001C75.6812 37.5001 75.6812 37.5001 75.5798 37.4001C74.9711 37.0001 74.4638 36.6001 73.8551 36.3001C73.7537 37.0001 72.9421 37.4001 72.5363 37.9001C72.029 38.5001 71.5218 39.2001 71.5218 39.9001C71.5218 40.6001 71.9276 41.3001 72.6377 41.6001C73.3479 42.0001 74.1595 41.7001 74.8696 41.3001C75.2754 41.0001 75.6812 40.7001 76.087 40.5001C76.6957 40.2001 77.6087 40.5001 77.4058 41.3001C77.2029 42.0001 76.4928 42.6001 75.7827 42.8001C75.3769 42.9001 74.9711 42.9001 74.5653 42.7001C74.2609 42.6001 73.9566 42.2001 73.7537 42.6001L76.087 44.2001C76.1885 43.7001 76.3913 43.5001 76.7971 43.2001C77.3044 42.8001 77.7102 42.3001 78.116 41.8001C78.9276 40.9001 79.2319 39.3001 78.0145 38.4001ZM95.8696 10.3001C95.8696 10.4001 95.8696 10.4001 95.8696 10.3001L94.9566 11.3001L94.145 12.3001C93.9421 12.5001 93.8406 12.6001 94.145 12.8001C94.6522 12.5001 97.6957 17.6001 97.4928 18.3001C96.9856 18.5001 92.9276 15.0001 92.8261 14.8001C92.8261 14.7001 93.029 14.1001 92.7247 14.2001C92.6232 14.2001 92.2174 14.8001 92.116 14.9001L91.5073 15.6001C91.7102 15.9001 91.8116 15.6001 92.116 15.6001C92.3189 15.7001 93.3334 16.5001 93.6377 16.7001C93.1305 16.7001 91.9131 16.8001 91.7102 16.8001C91.1015 16.9001 91.4058 16.4001 91 16.2001L89.4783 18.0001L88.5653 19.0001C88.5653 19.0001 88.5653 19.0001 88.5653 19.1001C88.7682 19.3001 88.6667 19.2001 88.9711 19.1001C89.2754 19.0001 93.3334 22.3001 93.4348 22.5001C93.6377 22.8001 93.3334 23.1001 93.7392 23.3001L94.9566 21.9001C95.058 21.8001 95.058 21.8001 94.9566 21.8001C94.6522 21.6001 94.6522 21.9001 94.2464 21.9001C93.9421 21.8001 91.3044 19.7001 90.3913 18.9001L95.7682 18.7001C95.9711 18.7001 96.4783 19.3001 96.4783 19.5001C96.3769 19.7001 96.174 19.9001 96.4783 20.0001C96.7827 19.6001 97.087 19.3001 97.3913 18.9001L97.4928 18.7001C97.5942 18.7001 97.5942 18.6001 97.5942 18.5001L97.6957 18.4001C98 18.1001 98.9131 17.1001 98.8116 17.0001C98.5073 16.7001 98.4058 17.3001 98 17.0001C97.7971 16.8001 97.1884 15.8001 97.087 15.6001C96.8841 15.3001 97.4928 15.0001 97.6957 14.9001C98.2029 14.6001 99.8261 14.1001 100.029 15.1001C100.029 15.3001 99.8261 15.5001 99.9276 15.6001C99.9276 15.6001 100.029 15.8001 100.13 15.7001L102.261 13.1001C102.159 13.0001 102.159 13.0001 102.058 12.9001C101.551 13.4001 96.4783 11.4001 96.174 11.1001C96.0725 10.9001 96.0725 10.3001 95.8696 10.3001ZM95.6667 12.9001C96.4783 13.2001 97.1884 13.5001 98 13.9001C97.7971 14.0001 97.5942 14.1001 97.3913 14.2001C97.1885 14.3001 96.9856 14.5001 96.7827 14.7001L95.6667 12.9001ZM88.9711 20.6001C87.8551 20.5001 86.7392 21.0001 85.9276 21.9001C84.7102 23.4001 84.8116 25.6001 86.3334 26.8001C87.8551 28.0001 90.087 27.7001 91.3044 26.3001C92.5218 24.8001 92.4203 22.6001 90.8986 21.4001C90.3913 21.0001 89.6812 20.7001 88.9711 20.6001ZM87.5508 22.2001C88.1595 22.2001 88.8696 22.6001 89.2754 22.9001C90.087 23.4001 91.5073 24.6001 90.7971 25.6001C90.7971 25.5001 90.8986 25.5001 90.6957 25.7001C89.8841 26.5001 88.4638 25.8001 87.7537 25.2001C87.0435 24.7001 85.7247 23.5001 86.5363 22.5001C86.8406 22.3001 87.145 22.2001 87.5508 22.2001ZM84.4058 26.5001C83.1884 26.4001 81.9711 27.0001 81.058 28.1001C80.4493 28.9001 79.7392 29.6001 79.1305 30.4001C79.3334 30.7001 79.6377 30.3001 79.9421 30.5001C80.2464 30.7001 84.1015 33.8001 84.1015 34.0001C84.2029 34.3001 83.8986 34.4001 84.2029 34.6001C84.3044 34.7001 87.145 31.2001 87.4493 30.6001C87.8551 29.5001 87.5508 28.2001 86.6377 27.4001C86.7392 27.5001 86.8406 27.5001 86.6377 27.4001C85.8261 26.8001 85.116 26.5001 84.4058 26.5001ZM83.2899 28.1001C83.3913 28.1001 83.4928 28.1001 83.5942 28.1001C85.0145 28.5001 87.0435 30.2001 85.7247 31.7001C85.5218 31.9001 85.7247 31.7001 85.3189 32.1001C85.116 32.3001 81.058 29.1001 81.2609 28.9001C81.6667 28.4001 82.5798 28.0001 83.2899 28.1001Z" fill="white"/>
</g>
<defs>
<clipPath id="clip0_33719_528">
<rect width="140" height="70" fill="white"/>
</clipPath>
</defs>
</svg>
